<svg width="32" height="33" viewBox="0 0 32 33" fill="none" xmlns="http://www.w3.org/2000/svg">
<path d="M31.5889 17.1339L17.1888 1.12228C16.5824 0.446586 15.4176 0.446586 14.8112 1.12228L0.411096 17.1339C-0.0129064 17.603 -0.118507 18.2787 0.139095 18.8567C0.395096 19.4347 0.9679 19.8062 1.5999 19.8062H4.79992V31.0143C4.79992 31.8982 5.51513 32.6155 6.39993 32.6155H11.2C12.0848 32.6155 12.8 31.8982 12.8 31.0143V24.6097H19.2V31.0143C19.2 31.8982 19.9152 32.6155 20.8 32.6155H25.6001C26.4849 32.6155 27.2001 31.8982 27.2001 31.0143V19.8062H30.4001C31.0321 19.8062 31.6049 19.4347 31.8609 18.8567C32.1185 18.2787 32.0129 17.6046 31.5889 17.1339Z" fill="#EEEEF1"/>
</svg>
