<svg width="29" height="29" viewBox="0 0 29 29" fill="none" xmlns="http://www.w3.org/2000/svg">
<path d="M5.52013 16.1544C6.97142 17.5557 8.73374 18.2563 10.807 18.2563C12.8803 18.2563 14.6426 17.5557 16.0939 16.1544C17.5452 14.7532 18.2709 13.0517 18.2709 11.0499C18.2709 9.04808 17.5452 7.34654 16.0939 5.94529C14.6426 4.54404 12.8803 3.8434 10.807 3.8434C8.73374 3.8434 6.97142 4.54404 5.52013 5.94529C4.06884 7.34654 3.34318 9.04808 3.34318 11.0499C3.34318 13.0517 4.06884 14.7532 5.52013 16.1544ZM20.7588 18.2563L29 26.2134L26.5121 28.6155L18.2709 20.6585V19.3823L17.8044 18.9319C15.8347 20.5834 13.5023 21.4092 10.807 21.4092C7.80076 21.4092 5.23506 20.4083 3.10993 18.4065C1.03665 16.4047 0 13.9525 0 11.0499C0 8.14727 1.03665 5.69506 3.10993 3.69327C5.23506 1.64143 7.80076 0.615509 10.807 0.615509C13.8133 0.615509 16.3531 1.64143 18.4264 3.69327C20.4996 5.69506 21.5363 8.14727 21.5363 11.0499C21.5363 12.1008 21.2771 13.3019 20.7588 14.6531C20.2405 15.9543 19.6444 17.0052 18.9706 17.8059L19.4371 18.2563H20.7588Z" fill="#EEEEF1"/>
</svg>
